<?xml version="1.0" encoding="UTF-8"?>
<svg width="666.67" height="560.67" version="1.1" viewBox="0 0 666.67 560.67" xml:space="preserve" xmlns="http://www.w3.org/2000/svg" xmlns:cc="http://creativecommons.org/ns#" xmlns:dc="http://purl.org/dc/elements/1.1/" xmlns:rdf="http://www.w3.org/1999/02/22-rdf-syntax-ns#"><metadata><rdf:RDF><cc:Work rdf:about=""><dc:format>image/svg+xml</dc:format><dc:type rdf:resource="http://purl.org/dc/dcmitype/StillImage"/><dc:title/></cc:Work></rdf:RDF></metadata><defs><clipPath id="a"><path d="m0 500h500v-500h-500z"/></clipPath></defs><g transform="matrix(1.3333 0 0 -1.3333 0 666.67)"><g clip-path="url(#a)"><g fill="#f2727f"><path d="m161.11 11.726c0 0.545-0.078 1.017-0.24 1.403-0.157 0.392-0.378 0.693-0.662 0.906-0.283 0.207-0.595 0.314-0.939 0.314-0.545 0-1.006-0.231-1.381-0.676-0.375-0.451-0.563-1.11-0.563-1.983 0-0.823 0.188-1.462 0.557-1.914 0.375-0.458 0.838-0.688 1.387-0.688 0.328 0 0.634 0.1 0.916 0.302 0.276 0.199 0.502 0.497 0.671 0.891 0.171 0.403 0.254 0.881 0.254 1.445m-3.877 3.008v-0.249c0.371 0.477 0.756 0.833 1.157 1.054 0.402 0.226 0.859 0.34 1.367 0.34 0.607 0 1.168-0.165 1.681-0.493 0.51-0.328 0.915-0.805 1.213-1.438 0.297-0.632 0.444-1.376 0.444-2.238 0-0.634-0.083-1.225-0.255-1.749-0.171-0.533-0.407-0.982-0.706-1.342-0.3-0.36-0.656-0.64-1.062-0.831-0.41-0.197-0.85-0.293-1.315-0.293-0.569 0-1.043 0.118-1.427 0.356-0.388 0.236-0.751 0.582-1.097 1.042v-3.098c0-0.909-0.317-1.361-0.95-1.361-0.372 0-0.62 0.115-0.737 0.348-0.122 0.236-0.182 0.577-0.182 1.026v8.913c0 0.392 0.079 0.687 0.245 0.881 0.167 0.192 0.391 0.292 0.674 0.292 0.28 0 0.509-0.1 0.685-0.301s0.265-0.488 0.265-0.859"/><path d="m169.82 8.663v0.261c-0.238-0.312-0.486-0.572-0.748-0.783-0.261-0.216-0.546-0.372-0.853-0.474-0.313-0.103-0.664-0.155-1.061-0.155-0.475 0-0.904 0.104-1.285 0.308-0.38 0.207-0.674 0.493-0.879 0.855-0.25 0.439-0.37 1.07-0.37 1.888v4.093c0 0.41 0.089 0.722 0.268 0.925 0.179 0.204 0.415 0.307 0.708 0.307 0.301 0 0.541-0.103 0.726-0.312 0.184-0.207 0.274-0.515 0.274-0.92v-3.307c0-0.476 0.039-0.878 0.114-1.202 0.081-0.326 0.219-0.581 0.422-0.767 0.196-0.182 0.469-0.274 0.812-0.274 0.337 0 0.65 0.105 0.943 0.311 0.296 0.204 0.512 0.474 0.646 0.807 0.111 0.293 0.166 0.932 0.166 1.921v2.511c0 0.405 0.092 0.713 0.277 0.92 0.182 0.209 0.418 0.312 0.715 0.312 0.295 0 0.531-0.103 0.71-0.307 0.177-0.203 0.265-0.515 0.265-0.925v-5.981c0-0.393-0.082-0.689-0.254-0.883-0.17-0.199-0.391-0.295-0.662-0.295-0.27 0-0.492 0.105-0.67 0.304-0.176 0.207-0.264 0.49-0.264 0.862"/><path d="m175.56 11.644c0-0.822 0.179-1.451 0.538-1.893 0.361-0.439 0.834-0.663 1.42-0.663 0.498 0 0.923 0.227 1.286 0.678 0.362 0.452 0.542 1.094 0.542 1.938 0 0.55-0.076 1.017-0.226 1.408-0.151 0.396-0.365 0.7-0.638 0.912-0.279 0.214-0.596 0.325-0.964 0.325-0.381 0-0.711-0.111-1.008-0.325-0.297-0.212-0.527-0.524-0.698-0.931-0.169-0.403-0.252-0.884-0.252-1.449m-0.093 6.137v-3.156c0.367 0.407 0.749 0.713 1.134 0.932 0.387 0.214 0.868 0.322 1.436 0.322 0.658 0 1.233-0.165 1.729-0.487 0.494-0.331 0.88-0.799 1.152-1.416 0.275-0.618 0.41-1.35 0.41-2.197 0-0.627-0.075-1.199-0.226-1.724-0.153-0.52-0.372-0.97-0.663-1.358-0.293-0.381-0.644-0.674-1.055-0.89-0.415-0.205-0.87-0.312-1.367-0.312-0.302 0-0.591 0.039-0.861 0.113-0.267 0.077-0.498 0.175-0.681 0.302-0.192 0.117-0.352 0.249-0.486 0.377-0.132 0.133-0.305 0.328-0.522 0.59v-0.202c0-0.39-0.092-0.683-0.271-0.883-0.177-0.199-0.407-0.297-0.679-0.297-0.283 0-0.504 0.098-0.673 0.297-0.165 0.204-0.248 0.495-0.248 0.883v9.016c0 0.415 0.08 0.733 0.244 0.946 0.161 0.216 0.385 0.322 0.677 0.322 0.302 0 0.538-0.102 0.7-0.308 0.166-0.202 0.25-0.491 0.25-0.87"/><path d="m182.73 8.752v8.952c0 0.415 0.087 0.726 0.261 0.939 0.18 0.21 0.416 0.316 0.716 0.316s0.54-0.103 0.725-0.313c0.18-0.208 0.276-0.525 0.276-0.942v-8.952c0-0.419-0.096-0.734-0.281-0.945-0.185-0.205-0.426-0.312-0.72-0.312-0.29 0-0.522 0.109-0.705 0.325-0.182 0.218-0.272 0.527-0.272 0.932"/><path d="m188.73 14.715v-5.963c0-0.416-0.097-0.729-0.281-0.94-0.19-0.208-0.43-0.317-0.717-0.317-0.291 0-0.528 0.109-0.707 0.324-0.18 0.219-0.274 0.528-0.274 0.933v5.904c0 0.405 0.094 0.713 0.274 0.92 0.179 0.209 0.416 0.312 0.707 0.312 0.287 0 0.527-0.103 0.717-0.312 0.184-0.207 0.281-0.493 0.281-0.861m-0.979 2.135c-0.275 0-0.509 0.088-0.709 0.268-0.19 0.176-0.291 0.428-0.291 0.751 0 0.291 0.101 0.529 0.302 0.722 0.2 0.189 0.432 0.278 0.698 0.278 0.256 0 0.484-0.083 0.682-0.253 0.197-0.172 0.297-0.424 0.297-0.747 0-0.32-0.098-0.568-0.291-0.745-0.194-0.179-0.42-0.274-0.688-0.274"/><path d="m197.85 10.052c0-0.256-0.072-0.532-0.218-0.824-0.15-0.292-0.374-0.57-0.677-0.835-0.3-0.264-0.681-0.477-1.14-0.637-0.459-0.165-0.976-0.244-1.549-0.244-1.224 0-2.177 0.373-2.864 1.115-0.684 0.744-1.028 1.738-1.028 2.989 0 0.847 0.156 1.598 0.469 2.246 0.313 0.647 0.771 1.154 1.363 1.507 0.593 0.358 1.306 0.535 2.129 0.535 0.514 0 0.984-0.08 1.412-0.234 0.427-0.157 0.789-0.36 1.086-0.605 0.297-0.248 0.523-0.511 0.682-0.79 0.158-0.279 0.234-0.541 0.234-0.783 0-0.244-0.09-0.453-0.264-0.626-0.177-0.173-0.388-0.258-0.64-0.258-0.166 0-0.301 0.048-0.412 0.136-0.106 0.085-0.229 0.224-0.366 0.425-0.24 0.382-0.494 0.671-0.757 0.866-0.263 0.19-0.598 0.288-1.001 0.288-0.587 0-1.058-0.242-1.415-0.718-0.358-0.479-0.535-1.129-0.535-1.957 0-0.385 0.046-0.747 0.139-1.07 0.091-0.326 0.224-0.602 0.396-0.833 0.175-0.229 0.383-0.402 0.63-0.52 0.246-0.121 0.518-0.179 0.811-0.179 0.398 0 0.736 0.094 1.019 0.286 0.284 0.193 0.534 0.486 0.75 0.875 0.121 0.237 0.251 0.417 0.392 0.55 0.142 0.132 0.313 0.194 0.516 0.194 0.241 0 0.441-0.094 0.602-0.285 0.156-0.195 0.236-0.397 0.236-0.614"/><path d="m201.11 11.704c0-0.559 0.083-1.033 0.249-1.429 0.168-0.394 0.393-0.686 0.683-0.885 0.292-0.202 0.608-0.302 0.948-0.302 0.349 0 0.666 0.097 0.953 0.283 0.289 0.191 0.516 0.482 0.69 0.872 0.172 0.389 0.257 0.878 0.257 1.461 0 0.553-0.085 1.023-0.257 1.42-0.174 0.397-0.405 0.698-0.696 0.911-0.293 0.207-0.611 0.314-0.959 0.314-0.361 0-0.684-0.111-0.97-0.325-0.283-0.212-0.507-0.523-0.663-0.923-0.156-0.403-0.235-0.864-0.235-1.397m3.888-3.029v0.202c-0.266-0.317-0.527-0.575-0.789-0.772-0.254-0.201-0.536-0.352-0.838-0.456-0.301-0.1-0.631-0.154-0.987-0.154-0.473 0-0.914 0.107-1.316 0.312-0.402 0.216-0.751 0.511-1.046 0.899-0.294 0.388-0.517 0.844-0.671 1.37-0.154 0.523-0.228 1.09-0.228 1.703 0 1.287 0.303 2.298 0.906 3.019 0.606 0.721 1.399 1.081 2.383 1.081 0.569 0 1.051-0.105 1.441-0.313 0.391-0.2 0.774-0.514 1.145-0.941v3.049c0 0.424 0.08 0.744 0.243 0.96 0.161 0.218 0.39 0.325 0.691 0.325 0.298 0 0.529-0.1 0.693-0.297 0.16-0.198 0.244-0.493 0.244-0.881v-9.106c0-0.393-0.088-0.689-0.263-0.883-0.174-0.199-0.397-0.297-0.674-0.297-0.268 0-0.495 0.102-0.671 0.306-0.175 0.203-0.263 0.492-0.263 0.874"/><path d="m214.28 11.688c0 0.838-0.18 1.496-0.533 1.964-0.355 0.466-0.834 0.703-1.431 0.703-0.389 0-0.728-0.105-1.023-0.314-0.294-0.212-0.52-0.52-0.681-0.929-0.158-0.404-0.239-0.878-0.239-1.424 0-0.541 0.081-1.01 0.235-1.413 0.157-0.403 0.382-0.712 0.676-0.926 0.291-0.214 0.638-0.32 1.032-0.32 0.597 0 1.076 0.235 1.431 0.705 0.353 0.47 0.533 1.123 0.533 1.954m1.985 0c0-0.612-0.093-1.18-0.276-1.703-0.183-0.514-0.449-0.962-0.795-1.336-0.35-0.374-0.765-0.653-1.248-0.857-0.482-0.199-1.03-0.297-1.63-0.297-0.598 0-1.138 0.098-1.615 0.303-0.478 0.2-0.894 0.489-1.245 0.865-0.348 0.377-0.613 0.816-0.797 1.328-0.18 0.516-0.27 1.077-0.27 1.7 0 0.625 0.093 1.197 0.274 1.713 0.184 0.523 0.445 0.963 0.789 1.334 0.344 0.367 0.758 0.651 1.249 0.849 0.49 0.2 1.025 0.301 1.615 0.301 0.599 0 1.143-0.101 1.63-0.304 0.487-0.2 0.905-0.49 1.252-0.863 0.35-0.372 0.614-0.819 0.791-1.333 0.186-0.513 0.276-1.08 0.276-1.7"/><path d="m224.61 13.393c-0.148-0.349-0.218-0.965-0.218-1.852v-2.743c0-0.432-0.093-0.76-0.284-0.978-0.187-0.216-0.439-0.325-0.748-0.325-0.297 0-0.539 0.109-0.723 0.325-0.187 0.218-0.278 0.546-0.278 0.978v3.293c0 0.517-0.019 0.92-0.053 1.211-0.035 0.284-0.125 0.521-0.276 0.706-0.146 0.185-0.385 0.277-0.707 0.277-0.646 0-1.072-0.232-1.279-0.699-0.207-0.462-0.305-1.128-0.305-1.997v-2.791c0-0.431-0.096-0.755-0.279-0.97-0.188-0.224-0.433-0.333-0.734-0.333s-0.549 0.109-0.739 0.333c-0.192 0.215-0.283 0.539-0.283 0.969v5.907c0 0.39 0.082 0.685 0.252 0.886 0.174 0.2 0.399 0.304 0.682 0.304 0.269 0 0.496-0.094 0.675-0.284 0.181-0.188 0.272-0.448 0.272-0.782v-0.196c0.342 0.429 0.71 0.745 1.099 0.944 0.391 0.201 0.831 0.303 1.305 0.303 0.496 0 0.922-0.105 1.279-0.313 0.36-0.204 0.653-0.517 0.883-0.934 0.334 0.42 0.692 0.737 1.074 0.94 0.382 0.205 0.804 0.307 1.266 0.307 0.545 0 1.01-0.108 1.399-0.334 0.392-0.222 0.683-0.538 0.877-0.952 0.17-0.373 0.253-0.96 0.253-1.764v-4.031c0-0.432-0.093-0.76-0.279-0.978-0.192-0.216-0.438-0.325-0.748-0.325-0.301 0-0.545 0.109-0.734 0.333-0.194 0.215-0.289 0.539-0.289 0.97v3.473c0 0.445-0.018 0.799-0.053 1.067-0.037 0.27-0.135 0.491-0.296 0.674-0.158 0.181-0.401 0.273-0.722 0.273-0.26 0-0.509-0.082-0.74-0.239-0.238-0.164-0.416-0.381-0.549-0.653"/><path d="m235.82 11.648c-0.291-0.113-0.712-0.227-1.265-0.353-0.554-0.123-0.937-0.213-1.15-0.273-0.212-0.059-0.416-0.171-0.606-0.338-0.195-0.174-0.293-0.409-0.293-0.711 0-0.316 0.115-0.579 0.34-0.799 0.228-0.222 0.526-0.329 0.893-0.329 0.391 0 0.754 0.091 1.083 0.269 0.331 0.178 0.577 0.411 0.728 0.692 0.18 0.313 0.27 0.826 0.27 1.548zm0.129-2.99c-0.479-0.388-0.941-0.679-1.387-0.87-0.446-0.197-0.95-0.293-1.502-0.293-0.511 0-0.952 0.107-1.339 0.312-0.387 0.211-0.68 0.495-0.889 0.856-0.205 0.358-0.311 0.742-0.311 1.162 0 0.566 0.175 1.045 0.517 1.445 0.34 0.395 0.811 0.664 1.409 0.8 0.126 0.031 0.44 0.096 0.934 0.201 0.503 0.11 0.925 0.205 1.285 0.292 0.352 0.087 0.739 0.195 1.154 0.32-0.025 0.547-0.129 0.946-0.314 1.206-0.188 0.252-0.576 0.377-1.157 0.377-0.505 0-0.881-0.071-1.138-0.218-0.252-0.144-0.471-0.366-0.649-0.662-0.184-0.29-0.309-0.484-0.384-0.576-0.077-0.096-0.238-0.138-0.481-0.138-0.225 0-0.416 0.073-0.576 0.22-0.164 0.15-0.244 0.338-0.244 0.573 0 0.362 0.123 0.718 0.368 1.056 0.247 0.344 0.632 0.626 1.153 0.851 0.521 0.222 1.172 0.332 1.951 0.332 0.867 0 1.552-0.11 2.052-0.323 0.497-0.212 0.844-0.549 1.051-1.017 0.207-0.46 0.309-1.078 0.309-1.843 0-0.484 0-0.898-3e-3 -1.234-4e-3 -0.34-6e-3 -0.715-0.011-1.128 0-0.386 0.062-0.793 0.186-1.212 0.12-0.42 0.181-0.693 0.181-0.811 0-0.213-0.096-0.406-0.286-0.58-0.186-0.173-0.405-0.261-0.645-0.261-0.206 0-0.403 0.098-0.604 0.297-0.197 0.2-0.407 0.49-0.63 0.866"/><path d="m241.74 14.715v-5.963c0-0.416-0.095-0.729-0.28-0.94-0.189-0.208-0.426-0.317-0.717-0.317-0.289 0-0.527 0.109-0.706 0.324-0.184 0.219-0.274 0.528-0.274 0.933v5.904c0 0.405 0.09 0.713 0.274 0.92 0.179 0.209 0.417 0.312 0.706 0.312 0.291 0 0.528-0.103 0.717-0.312 0.185-0.207 0.28-0.493 0.28-0.861m-0.977 2.135c-0.273 0-0.507 0.088-0.703 0.268-0.196 0.176-0.297 0.428-0.297 0.751 0 0.291 0.102 0.529 0.303 0.722 0.199 0.189 0.434 0.278 0.697 0.278 0.256 0 0.486-0.083 0.684-0.253 0.196-0.172 0.293-0.424 0.293-0.747 0-0.32-0.095-0.568-0.289-0.745-0.193-0.179-0.423-0.274-0.688-0.274"/><path d="m245.59 14.745v-0.246c0.346 0.477 0.726 0.828 1.136 1.052 0.414 0.223 0.888 0.337 1.427 0.337 0.519 0 0.988-0.117 1.401-0.358 0.406-0.235 0.715-0.568 0.916-1 0.132-0.255 0.214-0.529 0.255-0.82 0.036-0.29 0.058-0.663 0.058-1.118v-3.84c0-0.416-0.093-0.729-0.273-0.94-0.182-0.208-0.418-0.317-0.706-0.317-0.294 0-0.534 0.109-0.711 0.325-0.187 0.218-0.28 0.527-0.28 0.932v3.437c0 0.685-0.088 1.204-0.269 1.563-0.185 0.36-0.547 0.543-1.088 0.543-0.351 0-0.673-0.11-0.962-0.331-0.289-0.217-0.502-0.52-0.637-0.903-0.096-0.308-0.147-0.88-0.147-1.727v-2.582c0-0.419-0.091-0.734-0.278-0.945-0.187-0.205-0.427-0.312-0.72-0.312-0.283 0-0.52 0.109-0.702 0.324-0.187 0.219-0.277 0.528-0.277 0.933v5.963c0 0.395 0.082 0.685 0.249 0.881 0.16 0.194 0.39 0.292 0.673 0.292 0.171 0 0.33-0.046 0.468-0.129 0.145-0.084 0.253-0.217 0.338-0.382 0.082-0.176 0.129-0.385 0.129-0.632"/><path d="m253.95 14.604 1.598-4.688 1.724 4.892c0.138 0.393 0.27 0.669 0.402 0.834 0.134 0.163 0.328 0.246 0.593 0.246 0.25 0 0.463-0.088 0.644-0.268 0.173-0.175 0.262-0.376 0.262-0.613 0-0.089-0.018-0.194-0.049-0.312-0.028-0.124-0.065-0.237-0.107-0.345-0.042-0.102-0.085-0.225-0.142-0.36l-1.898-4.915c-0.053-0.139-0.124-0.321-0.206-0.539-0.086-0.215-0.181-0.396-0.283-0.557-0.105-0.151-0.232-0.267-0.383-0.354-0.155-0.086-0.339-0.13-0.557-0.13-0.281 0-0.502 0.067-0.671 0.198-0.167 0.135-0.29 0.28-0.369 0.442-0.078 0.156-0.215 0.471-0.402 0.94l-1.885 4.862c-0.043 0.119-0.09 0.241-0.137 0.362-0.044 0.121-0.079 0.241-0.113 0.37-0.031 0.129-0.048 0.236-0.048 0.323 0 0.145 0.041 0.283 0.125 0.422 0.082 0.14 0.196 0.255 0.34 0.341 0.147 0.087 0.3 0.133 0.472 0.133 0.326 0 0.553-0.098 0.677-0.298 0.124-0.195 0.263-0.525 0.413-0.986"/><path d="m262.04 12.361h3.585c-0.046 0.703-0.227 1.232-0.546 1.58-0.317 0.349-0.734 0.525-1.252 0.525-0.489 0-0.895-0.178-1.21-0.532-0.316-0.354-0.506-0.879-0.577-1.573m3.869-1.174h-3.869c1e-3 -0.471 0.096-0.883 0.269-1.244 0.179-0.354 0.412-0.625 0.705-0.808 0.292-0.183 0.615-0.271 0.968-0.271 0.236 0 0.454 0.029 0.647 0.085 0.195 0.061 0.387 0.151 0.572 0.273 0.181 0.124 0.348 0.253 0.504 0.399 0.152 0.141 0.359 0.329 0.602 0.572 0.102 0.096 0.248 0.138 0.434 0.138 0.206 0 0.368-0.056 0.494-0.175 0.126-0.116 0.186-0.278 0.186-0.489 0-0.188-0.069-0.405-0.21-0.657-0.139-0.246-0.346-0.488-0.634-0.719-0.283-0.228-0.638-0.415-1.065-0.57-0.425-0.151-0.914-0.226-1.475-0.226-1.269 0-2.258 0.381-2.96 1.133-0.704 0.761-1.056 1.783-1.056 3.076 0 0.617 0.09 1.179 0.26 1.699 0.174 0.524 0.426 0.97 0.76 1.342 0.334 0.375 0.742 0.663 1.231 0.859 0.491 0.201 1.029 0.3 1.625 0.3 0.768 0 1.433-0.17 1.986-0.512 0.554-0.34 0.967-0.777 1.243-1.315 0.275-0.543 0.413-1.09 0.413-1.653 0-0.516-0.139-0.853-0.427-1.005-0.287-0.156-0.685-0.232-1.203-0.232"/><path d="m276.31 10.052c0-0.256-0.074-0.532-0.224-0.824-0.148-0.292-0.368-0.57-0.673-0.835-0.301-0.264-0.684-0.477-1.144-0.637-0.456-0.165-0.976-0.244-1.546-0.244-1.226 0-2.18 0.373-2.865 1.115-0.683 0.744-1.029 1.738-1.029 2.989 0 0.847 0.156 1.598 0.473 2.246 0.314 0.647 0.765 1.154 1.36 1.507 0.592 0.358 1.305 0.535 2.132 0.535 0.512 0 0.98-0.08 1.41-0.234 0.427-0.157 0.786-0.36 1.087-0.605 0.297-0.248 0.522-0.511 0.681-0.79 0.155-0.279 0.234-0.541 0.234-0.783 0-0.244-0.086-0.453-0.268-0.626-0.174-0.173-0.387-0.258-0.638-0.258-0.165 0-0.301 0.048-0.407 0.136-0.112 0.085-0.233 0.224-0.369 0.425-0.242 0.382-0.493 0.671-0.756 0.866-0.264 0.19-0.598 0.288-1.005 0.288-0.581 0-1.054-0.242-1.41-0.718-0.361-0.479-0.538-1.129-0.538-1.957 0-0.385 0.048-0.747 0.136-1.07 0.093-0.326 0.227-0.602 0.402-0.833 0.172-0.229 0.384-0.402 0.63-0.52 0.243-0.121 0.514-0.179 0.811-0.179 0.396 0 0.736 0.094 1.019 0.286 0.281 0.193 0.533 0.486 0.751 0.875 0.121 0.237 0.249 0.417 0.39 0.55 0.139 0.132 0.309 0.194 0.515 0.194 0.238 0 0.442-0.094 0.596-0.285 0.163-0.195 0.245-0.397 0.245-0.614"/><path d="m278.14 15.714h0.217v1.241c0 0.33 9e-3 0.594 0.027 0.781 0.016 0.19 0.06 0.349 0.141 0.488 0.076 0.138 0.187 0.255 0.334 0.344 0.144 0.086 0.305 0.128 0.484 0.128 0.25 0 0.478-0.096 0.679-0.292 0.133-0.133 0.221-0.291 0.257-0.478 0.037-0.19 0.054-0.461 0.054-0.808v-1.404h0.727c0.28 0 0.495-0.07 0.641-0.209 0.151-0.139 0.222-0.315 0.222-0.532 0-0.278-0.105-0.474-0.318-0.583-0.209-0.109-0.509-0.165-0.901-0.165h-0.371v-3.802c0-0.323 0.012-0.572 0.032-0.748 0.026-0.175 0.087-0.317 0.179-0.422 0.091-0.108 0.245-0.165 0.459-0.165 0.115 0 0.271 0.02 0.472 0.065 0.193 0.042 0.348 0.064 0.461 0.064 0.159 0 0.307-0.07 0.433-0.196 0.125-0.138 0.191-0.3 0.191-0.499 0-0.331-0.17-0.585-0.521-0.762-0.352-0.177-0.85-0.265-1.499-0.265-0.619 0-1.089 0.109-1.407 0.325-0.318 0.218-0.53 0.516-0.625 0.904-0.102 0.382-0.151 0.893-0.151 1.534v3.967h-0.262c-0.281 0-0.498 0.07-0.65 0.213-0.15 0.14-0.223 0.317-0.223 0.535 0 0.217 0.077 0.393 0.232 0.532 0.159 0.139 0.386 0.209 0.686 0.209"/><path d="m288.7 11.688c0 0.838-0.18 1.496-0.532 1.964-0.358 0.466-0.831 0.703-1.432 0.703-0.387 0-0.727-0.105-1.02-0.314-0.297-0.212-0.524-0.52-0.682-0.929-0.159-0.404-0.24-0.878-0.24-1.424 0-0.541 0.081-1.01 0.237-1.413s0.38-0.712 0.672-0.926c0.291-0.214 0.636-0.32 1.033-0.32 0.601 0 1.074 0.235 1.432 0.705 0.352 0.47 0.532 1.123 0.532 1.954m1.986 0c0-0.612-0.091-1.18-0.278-1.703-0.181-0.514-0.449-0.962-0.795-1.336-0.348-0.374-0.764-0.653-1.246-0.857-0.484-0.199-1.024-0.297-1.631-0.297-0.601 0-1.14 0.098-1.617 0.303-0.476 0.2-0.892 0.489-1.242 0.865-0.349 0.377-0.615 0.816-0.794 1.328-0.181 0.516-0.27 1.077-0.27 1.7 0 0.625 0.089 1.197 0.27 1.713 0.187 0.523 0.447 0.963 0.79 1.334 0.346 0.367 0.76 0.651 1.246 0.849 0.493 0.2 1.03 0.301 1.617 0.301 0.601 0 1.141-0.101 1.631-0.304 0.487-0.2 0.903-0.49 1.252-0.863 0.345-0.372 0.614-0.819 0.795-1.333 0.181-0.513 0.272-1.08 0.272-1.7"/><path d="m294.21 10.471v-1.719c0-0.419-0.095-0.734-0.283-0.945-0.19-0.205-0.428-0.312-0.72-0.312-0.281 0-0.519 0.109-0.7 0.317-0.184 0.211-0.274 0.524-0.274 0.94v5.745c0 0.929 0.32 1.391 0.962 1.391 0.325 0 0.564-0.111 0.711-0.325 0.143-0.216 0.219-0.538 0.239-0.959 0.235 0.421 0.48 0.743 0.729 0.959 0.249 0.214 0.579 0.325 0.992 0.325 0.419 0 0.821-0.111 1.214-0.325 0.389-0.216 0.587-0.505 0.587-0.862 0-0.252-0.086-0.463-0.252-0.624-0.165-0.163-0.346-0.248-0.541-0.248-0.071 0-0.247 0.048-0.524 0.144-0.28 0.091-0.525 0.139-0.739 0.139-0.287 0-0.523-0.077-0.705-0.239-0.184-0.161-0.328-0.394-0.428-0.705-0.102-0.316-0.175-0.687-0.211-1.12-0.038-0.428-0.057-0.952-0.057-1.577"/><path d="m304.75 10.192c0-0.571-0.133-1.057-0.401-1.463-0.267-0.408-0.658-0.711-1.178-0.923-0.521-0.204-1.15-0.311-1.898-0.311-0.705 0-1.317 0.113-1.826 0.342-0.506 0.226-0.881 0.508-1.121 0.848-0.244 0.338-0.368 0.68-0.368 1.021 0 0.227 0.079 0.422 0.237 0.583 0.154 0.164 0.351 0.241 0.584 0.241 0.209 0 0.371-0.053 0.481-0.156 0.111-0.112 0.215-0.258 0.319-0.449 0.202-0.369 0.444-0.644 0.731-0.825 0.278-0.184 0.664-0.274 1.156-0.274 0.393 0 0.719 0.093 0.974 0.278 0.252 0.183 0.382 0.393 0.382 0.63 0 0.366-0.133 0.631-0.394 0.795-0.268 0.17-0.698 0.328-1.303 0.479-0.681 0.177-1.236 0.362-1.664 0.555-0.428 0.195-0.773 0.453-1.027 0.77-0.256 0.313-0.386 0.706-0.386 1.17 0 0.416 0.119 0.807 0.356 1.172 0.236 0.369 0.589 0.662 1.049 0.882 0.461 0.22 1.017 0.331 1.672 0.331 0.51 0 0.97-0.057 1.38-0.167 0.407-0.111 0.753-0.261 1.021-0.446 0.273-0.187 0.483-0.393 0.624-0.619 0.145-0.229 0.215-0.451 0.215-0.666 0-0.238-0.074-0.427-0.229-0.586-0.153-0.144-0.371-0.221-0.647-0.221-0.206 0-0.378 0.059-0.522 0.183-0.14 0.119-0.306 0.299-0.487 0.538-0.151 0.202-0.326 0.366-0.531 0.486-0.203 0.119-0.478 0.181-0.824 0.181-0.358 0-0.658-0.078-0.891-0.239-0.238-0.157-0.357-0.356-0.357-0.594 0-0.217 0.088-0.394 0.259-0.533 0.177-0.139 0.409-0.254 0.705-0.345 0.297-0.09 0.701-0.204 1.219-0.334 0.614-0.155 1.114-0.34 1.504-0.558 0.388-0.215 0.682-0.472 0.882-0.767 0.204-0.298 0.304-0.634 0.304-1.009"/><path d="m306.99 7.495c-0.3 0-0.558 0.098-0.773 0.303-0.221 0.2-0.328 0.484-0.328 0.844 0 0.307 0.101 0.572 0.307 0.795 0.208 0.22 0.466 0.329 0.771 0.329 0.302 0 0.563-0.109 0.773-0.328 0.218-0.216 0.326-0.486 0.326-0.796 0-0.357-0.108-0.638-0.326-0.841-0.21-0.204-0.461-0.306-0.75-0.306"/><path d="m315.74 11.688c0 0.838-0.178 1.496-0.533 1.964-0.355 0.466-0.831 0.703-1.429 0.703-0.387 0-0.724-0.105-1.02-0.314-0.296-0.212-0.523-0.52-0.681-0.929-0.157-0.404-0.238-0.878-0.238-1.424 0-0.541 0.076-1.01 0.232-1.413 0.161-0.403 0.384-0.712 0.677-0.926 0.291-0.214 0.634-0.32 1.03-0.32 0.598 0 1.074 0.235 1.429 0.705s0.533 1.123 0.533 1.954m1.988 0c0-0.612-0.091-1.18-0.278-1.703-0.184-0.514-0.447-0.962-0.796-1.336-0.35-0.374-0.76-0.653-1.246-0.857-0.481-0.199-1.024-0.297-1.63-0.297-0.598 0-1.136 0.098-1.615 0.303-0.478 0.2-0.89 0.489-1.24 0.865-0.356 0.377-0.619 0.816-0.803 1.328-0.177 0.516-0.267 1.077-0.267 1.7 0 0.625 0.09 1.197 0.275 1.713 0.187 0.523 0.445 0.963 0.787 1.334 0.343 0.367 0.759 0.651 1.248 0.849 0.487 0.2 1.023 0.301 1.615 0.301 0.598 0 1.142-0.101 1.63-0.304 0.49-0.2 0.907-0.49 1.255-0.863 0.346-0.372 0.61-0.819 0.793-1.333 0.181-0.513 0.272-1.08 0.272-1.7"/><path d="m321.25 10.471v-1.719c0-0.419-0.094-0.734-0.282-0.945-0.186-0.205-0.428-0.312-0.715-0.312-0.289 0-0.521 0.109-0.705 0.317-0.186 0.211-0.276 0.524-0.276 0.94v5.745c0 0.929 0.325 1.391 0.964 1.391 0.329 0 0.564-0.111 0.708-0.325 0.143-0.216 0.228-0.538 0.245-0.959 0.232 0.421 0.474 0.743 0.723 0.959 0.249 0.214 0.582 0.325 0.994 0.325 0.422 0 0.825-0.111 1.212-0.325 0.392-0.216 0.589-0.505 0.589-0.862 0-0.252-0.084-0.463-0.249-0.624-0.169-0.163-0.346-0.248-0.543-0.248-0.07 0-0.244 0.048-0.521 0.144-0.28 0.091-0.525 0.139-0.74 0.139-0.288 0-0.522-0.077-0.711-0.239-0.18-0.161-0.324-0.394-0.426-0.705-0.099-0.316-0.17-0.687-0.207-1.12-0.039-0.428-0.06-0.952-0.06-1.577"/><path d="m326.96 11.759c0-0.835 0.176-1.469 0.527-1.9 0.348-0.425 0.804-0.642 1.356-0.642 0.326 0 0.64 0.096 0.931 0.279 0.293 0.185 0.531 0.461 0.715 0.832 0.186 0.371 0.275 0.819 0.275 1.348 0 0.842-0.179 1.496-0.534 1.964-0.353 0.472-0.821 0.709-1.4 0.709-0.563 0-1.017-0.231-1.356-0.676-0.343-0.45-0.514-1.087-0.514-1.914m5.733 2.618v-5.999c0-0.688-0.075-1.276-0.212-1.768-0.14-0.497-0.365-0.905-0.673-1.227-0.309-0.321-0.716-0.561-1.212-0.717-0.501-0.153-1.124-0.232-1.866-0.232-0.683 0-1.293 0.095-1.827 0.295-0.537 0.204-0.951 0.458-1.24 0.775-0.289 0.311-0.435 0.637-0.435 0.972 0 0.252 0.08 0.456 0.249 0.614 0.162 0.163 0.36 0.241 0.591 0.241 0.291 0 0.541-0.135 0.763-0.4 0.107-0.141 0.218-0.277 0.328-0.413 0.113-0.14 0.239-0.261 0.376-0.357 0.139-0.101 0.307-0.173 0.499-0.222 0.19-0.047 0.415-0.072 0.667-0.072 0.508 0 0.91 0.076 1.191 0.224 0.283 0.148 0.481 0.356 0.596 0.623 0.109 0.267 0.181 0.552 0.193 0.857 0.023 0.311 0.037 0.796 0.05 1.475-0.304-0.442-0.661-0.781-1.055-1.013-0.399-0.232-0.875-0.345-1.421-0.345-0.668 0-1.246 0.172-1.738 0.528-0.497 0.352-0.878 0.845-1.143 1.482-0.263 0.633-0.398 1.366-0.398 2.199 0 0.624 0.079 1.184 0.244 1.683 0.158 0.497 0.387 0.919 0.692 1.262 0.296 0.343 0.644 0.601 1.034 0.776 0.394 0.172 0.819 0.261 1.291 0.261 0.558 0 1.043-0.114 1.453-0.34 0.416-0.221 0.793-0.577 1.147-1.054v0.278c0 0.36 0.088 0.634 0.254 0.838 0.168 0.193 0.387 0.293 0.651 0.293 0.383 0 0.636-0.129 0.763-0.389 0.124-0.261 0.188-0.638 0.188-1.128"/><path d="m246.97 34.477h2.933c-0.207-1.581-0.855-2.816-1.933-3.705-0.997-0.87-2.205-1.299-3.616-1.299-1.916 0-3.446 0.673-4.587 2.016-1.082 1.278-1.622 2.928-1.622 4.943 0 2.065 0.536 3.715 1.606 4.966 1.069 1.245 2.582 1.871 4.537 1.871 1.454 0 2.685-0.394 3.682-1.174 1.058-0.844 1.705-2.03 1.933-3.547h-2.933c-0.254 1.324-1.062 1.982-2.438 1.982-2.267 0-3.403-1.342-3.403-4.03 0-1.26 0.292-2.287 0.875-3.089 0.583-0.804 1.405-1.206 2.466-1.206 1.581 0 2.415 0.759 2.5 2.272m-11.549 1.851c0-2.626 0.833-4.849 2.495-6.659 1.665-1.811 3.702-2.717 6.12-2.717 2.407 0 4.447 0.906 6.109 2.717 1.667 1.81 2.494 4.033 2.494 6.659 0 2.624-0.827 4.845-2.494 6.656-1.662 1.815-3.702 2.719-6.109 2.719-2.418 0-4.455-0.904-6.12-2.719-1.662-1.811-2.495-4.032-2.495-6.656m-2.98 0c0 3.341 1.13 6.193 3.393 8.562 2.266 2.365 5 3.548 8.202 3.548 3.195 0 5.925-1.183 8.193-3.548 2.264-2.369 3.398-5.221 3.398-8.562 0-3.344-1.134-6.199-3.398-8.563-2.268-2.368-4.998-3.551-8.193-3.551-3.202 0-5.936 1.183-8.202 3.551-2.263 2.364-3.393 5.219-3.393 8.563"/><path d="m237.13 28.733 1.691-1.434 12.434 15.967-1.69 1.432z"/></g><g fill-rule="evenodd"><path d="m257.09 445.98c116.01 0 210.06-94.047 210.06-210.06 0-45.868-14.71-88.297-39.661-122.84h-340.8c-24.949 34.546-39.661 76.975-39.661 122.84 0 116.01 94.046 210.06 210.06 210.06" fill="#fff8ed"/><path d="m257.09 104.92c125.38 0 227.64 3.664 227.64 8.157s-102.26 8.157-227.64 8.157c-125.37 0-227.63-3.664-227.63-8.157s102.26-8.157 227.63-8.157" fill="#ffefd6"/><path d="m426.54 378.4h-280.78l38.425-265.32h280.77z" fill="#ffceae"/><path d="m145.76 378.4h280.78l-38.425-265.32h-280.77z" fill="#ffefd6"/><path d="m145.76 378.4h280.78l-5.821-40.198h-280.78z" fill="#f9aa89"/><path d="m330.62 279.31h28.441c-1.157-8.014-2.317-16.029-3.474-23.998h-28.414c1.13 7.969 2.29 16.006 3.447 23.998m31.676-33.701h28.441c-1.156-7.993-2.313-15.983-3.471-23.999h-28.417c1.161 8.016 2.318 16.006 3.447 23.999m-36.528 0h28.414c-1.158-7.993-2.314-15.983-3.475-23.999h-28.415c1.162 8.016 2.317 16.006 3.476 23.999m31.676-33.701h28.414c-1.156-7.994-2.314-15.985-3.47-23.977h-28.414c1.156 7.992 2.314 15.983 3.47 23.977m-36.556 0h28.415c-1.158-7.994-2.316-15.985-3.472-23.977h-28.415c1.157 7.992 2.313 15.983 3.472 23.977m51.168 101.08h28.442c-1.16-8.015-2.318-16.007-3.476-23.999h-28.442c1.157 8.016 2.314 15.984 3.476 23.999m-36.556 0.021c9.49 0 18.951 0 28.441-0.021-1.161-8.015-2.317-15.983-3.475-23.999-9.49 0-18.952 0.022-28.442 0.022 1.159 7.994 2.315 15.962 3.476 23.998m31.676-33.722h28.441c-1.157-7.993-2.316-16.008-3.476-23.999-9.489 0-18.951 0.022-28.441 0.022 1.158 7.969 2.318 15.984 3.476 23.977" fill="#f9aa89"/><path d="m257.54 279.31h28.442c-1.158-7.992-2.319-16.005-3.476-23.998h-28.442c1.158 7.993 2.319 16.006 3.476 23.998m-36.556 0h28.442c-1.158-7.992-2.318-16.005-3.476-23.998h-28.441c1.158 7.993 2.318 16.006 3.475 23.998m-73.085 0h28.415c-1.158-7.992-2.32-16.005-3.477-23.998h-28.414c1.158 7.993 2.319 16.006 3.476 23.998m141.32-33.701h28.44c-1.156-7.993-2.311-15.983-3.472-23.999h-28.443c1.16 8.016 2.318 16.006 3.475 23.999m-36.556 0h28.442c-1.158-7.993-2.315-15.983-3.476-23.999h-28.441c1.161 8.016 2.318 16.006 3.475 23.999m-36.558 0h28.442c-1.156-7.993-2.313-15.983-3.474-23.999h-28.442c1.161 8.016 2.317 16.006 3.474 23.999m-73.083 0h28.414c-1.158-7.993-2.317-15.983-3.477-23.999h-28.414c1.161 8.016 2.318 16.006 3.477 23.999m141.32-33.701h28.442c-1.158-7.994-2.315-15.985-3.471-23.977h-28.444c1.158 7.992 2.316 15.983 3.473 23.977m-36.558 0h28.444c-1.158-7.994-2.315-15.985-3.473-23.977h-28.442c1.157 7.992 2.315 15.983 3.471 23.977m-36.556 0h28.442c-1.157-7.994-2.315-15.985-3.472-23.977-9.49 0-18.98 0-28.441-0.022 1.156 8.014 2.312 16.005 3.471 23.999m-73.085 0h28.385c-1.158-7.994-2.314-15.985-3.471-23.999h-28.388c1.157 7.992 2.316 16.005 3.474 23.999m141.32-33.701h28.443c-1.157-7.992-2.315-15.985-3.471-23.977h-28.444c1.158 7.992 2.317 15.985 3.472 23.977m-36.557 0h28.444c-1.158-7.992-2.316-15.985-3.473-23.977h-28.444c1.159 7.992 2.317 15.985 3.473 23.977m-36.557-0.022c9.462 0 18.952 0.022 28.443 0.022-1.157-7.992-2.315-15.985-3.473-23.977h-28.442c1.157 7.992 2.315 15.985 3.472 23.955m-73.086 0h28.387c-1.158-7.97-2.316-15.985-3.473-23.955-9.463 0-18.953 0-28.386-0.023 1.157 7.993 2.315 15.985 3.472 23.978m36.528 0h28.415c-1.156-7.97-2.314-15.963-3.473-23.955h-28.414c1.158 7.97 2.314 15.985 3.472 23.955m4.881 33.723h28.444c-1.159-7.994-2.316-15.985-3.502-23.999h-28.413c1.158 8.014 2.314 16.005 3.471 23.999m4.882 33.701h28.442c-1.157-7.993-2.314-15.983-3.475-23.999h-28.443c1.16 8.016 2.32 16.006 3.476 23.999m119.43 67.402h28.441c-1.161-8.036-2.319-16.004-3.476-23.998h-28.441c1.156 7.994 2.314 15.986 3.476 23.998m-36.558 0h28.442c-1.16-8.012-2.317-16.004-3.475-23.998h-28.443c1.158 7.994 2.316 15.986 3.476 23.998m-77.991-33.701h28.442c-1.158-7.992-2.319-16.005-3.476-23.998h-28.443c1.156 7.993 2.319 16.006 3.477 23.998m109.67 0h28.441c-1.158-7.992-2.319-16.029-3.476-23.998h-28.442c1.156 7.993 2.317 16.006 3.477 23.998" fill="#fff"/><path d="m258.23 275.2 8.157-10.861 20.041 16.048 2.401-3.197-24.034-19.244-10.558 14.059zm-36.588 0c2.719-3.619 5.44-7.24 8.157-10.861 6.682 5.35 13.361 10.699 20.042 16.048 0.8-1.066 1.601-2.131 2.401-3.197-8.011-6.414-16.022-12.828-24.033-19.244-3.52 4.687-7.039 9.372-10.559 14.059 1.331 1.064 2.661 2.13 3.992 3.195m-73.173 0 8.159-10.861 20.039 16.048 2.402-3.197-24.032-19.244-10.56 14.059zm36.589 0c2.717-3.619 5.436-7.24 8.155-10.861 6.681 5.35 13.362 10.699 20.042 16.048 0.8-1.066 1.599-2.131 2.4-3.197-8.01-6.414-16.021-12.828-24.032-19.244-3.519 4.687-7.039 9.372-10.559 14.059 1.33 1.064 2.661 2.13 3.994 3.195" fill="#f2727f"/><path d="m88.703 243.5c44.08 0 83.373-36.602 87.656-80.683 4.285-44.081-30.898-49.74-74.978-49.74-44.082 0-80.367 5.659-84.652 49.74s27.893 80.683 71.974 80.683" fill="#f2727f"/><path d="m78.431 191.86h76.934c7.591 0 14.108-3.763 17.903-10.337l30.986-53.671-8.534-14.783-47.332 47.333h-44.62c-19.913 0-26.629 17.427-25.337 31.458" fill="#6b5c7b"/><path d="m195.72 113.07h30.286l-0.964 5.308c-0.864 4.748-4.581 8.465-9.329 9.329l-11.459 0.146z" fill="#c06c84"/><path d="m96.53 191.86 67.954 21.011c4.789 1.402 9.962 0.095 13.505-3.417 3.546-3.512 4.903-8.671 3.546-13.472-1.511-5.34-4.268-10.247-8.043-14.315-2.614-2.817-6.571-3.957-10.282-2.961-3.71 0.994-6.568 3.959-7.423 7.706-0.41 1.792-0.41 3.655 0 5.448z" fill="#524561"/><path d="m196.12 196.92c1.701-5.494-1.401-11.38-6.893-13.081l-13.531-4.19c-5.493-1.702-11.378 1.399-13.08 6.893-1.7 5.492 1.402 11.377 6.894 13.078l13.53 4.193c5.492 1.701 11.377-1.401 13.08-6.893" fill="#c06c84"/><path d="m78.431 191.86-17.391 44.843c-3.192 8.231 0.795 21.811 9.618 22.12 4.262 0.15 8.598-0.764 12.723-2.767l3.607-1.754c11.483-5.581 18.562-16.084 19.426-28.823l2.28-33.619z" fill="#c06c84"/><path d="m68.323 258.41 7.761 38.88 21.033-4.428-2.399-21.218c-0.895-6.69-7.904-10.736-14.147-8.169l-0.556-3.124 9.144-7.191c-5.398-5.585-14.838 5.412-20.836 5.25" fill="#ffceae"/><path d="m88.389 290.46 8.264-1.709c9.786-2.062 13.823 15.189-1.33 15.188-9.419 0-15.972-2.132-19.802-4.048l-1.952 0.62c-1.03 0.327-2.156 0.052-2.921-0.712-0.764-0.764-1.038-1.891-0.711-2.92l0.587-27.439 10.059 11.841 6.289 1.157-0.722 4.844c-0.224 1.489 0.881 3.46 2.239 3.178" fill="#6b5c7b"/></g><g fill="#ffceae" fill-rule="evenodd"><path d="m79.808 277.08c1.963 0 3.563 2.287 3.563 5.092 0 2.802-1.6 5.09-3.563 5.09-1.964 0-3.564-2.288-3.564-5.09 0-2.805 1.6-5.092 3.564-5.092"/><path d="m71.083 229.37 15.122-23.473c2.225-3.451 5.997-5.202 10.069-4.674l36.75 4.775-1.88 7.128-34.007 2.144-9.308 23.155z"/><path d="m131.14 213.13 2.937 0.302c4.723 0.485 9.461-0.784 13.31-3.569l-12.878-4.565-1.489 0.704-7.186 1.752z"/></g><path d="m130.47 202.36c-0.718-0.22-1.48 0.182-1.701 0.902-0.221 0.719 0.183 1.482 0.902 1.702l26.766 8.276 4.55 29.028c0.116 0.742 0.811 1.252 1.554 1.136 0.743-0.112 1.25-0.81 1.138-1.552l-4.673-29.803c-0.055-0.526-0.416-0.995-0.955-1.161z" fill="#6b5c7b" fill-rule="evenodd"/><path d="m91.589 200.72c1.615 0 2.932 1.318 2.932 2.931 0 1.614-1.317 2.931-2.932 2.931-1.612 0-2.931-1.317-2.931-2.931 0-1.613 1.319-2.931 2.931-2.931" fill="#ffceae" fill-rule="evenodd"/></g></g></svg>
